<svg width="36" height="40" viewBox="0 0 36 40" fill="none" xmlns="http://www.w3.org/2000/svg">
<path d="M24.612 9.96855C23.7113 11.8334 22.0723 13.1068 20.2139 13.6061C19.445 11.8454 19.4209 9.77461 20.3216 7.90816C21.223 6.04172 22.8621 4.7683 24.7212 4.26983C25.4877 6.03049 25.5126 8.1021 24.612 9.96855Z" fill="#20493C"/>
<path d="M28.5681 18.2221C26.5442 18.6829 24.5244 18.1981 22.9753 17.0601C23.876 15.3635 25.4837 14.0525 27.5092 13.5916C29.5339 13.1308 31.5545 13.6149 33.1036 14.7545C32.2013 16.4502 30.5936 17.7613 28.5681 18.2221Z" fill="#20493C"/>
<path d="M24.5662 26.4524C22.9432 25.1614 22.0634 23.2837 21.9895 21.3668C23.8808 21.011 25.9111 21.4477 27.5349 22.7396C29.1586 24.0314 30.0384 25.9091 30.1115 27.8276C28.2194 28.181 26.1899 27.7443 24.5662 26.4532V26.4524Z" fill="#20493C"/>
<path d="M15.6768 7.90816C16.5775 9.77301 16.5534 11.8462 15.7861 13.6053C13.9269 13.1068 12.2879 11.835 11.3872 9.96855C10.4858 8.1021 10.5099 6.02969 11.2788 4.26903C13.1372 4.7691 14.7762 6.04091 15.6768 7.90736V7.90816Z" fill="#20493C"/>
<path d="M8.49082 13.5916C10.5147 14.0524 12.124 15.3635 13.0247 17.0585C11.4748 18.1973 9.45656 18.6829 7.43107 18.2213C5.40639 17.7605 3.79709 16.4494 2.89643 14.7521C4.44708 13.6149 6.46614 13.13 8.49082 13.5908V13.5916Z" fill="#20493C"/>
<path d="M8.4643 22.7396C10.0873 21.4485 12.1184 21.011 14.0089 21.366C13.9358 23.2845 13.0568 25.1614 11.433 26.4532C9.80927 27.7451 7.77816 28.1826 5.88685 27.8268C5.96237 25.9083 6.84054 24.0314 8.4643 22.7404V22.7396Z" fill="#20493C"/>
<path d="M16.8097 2.59011C16.8097 1.55471 17.2717 0.62669 17.9996 0C18.7283 0.62669 19.1903 1.55471 19.1903 2.59011C19.1903 3.62551 18.7283 4.55433 17.9996 5.18102C17.2709 4.55352 16.8097 3.62631 16.8097 2.59011Z" fill="#20493C"/>
<path d="M4.85363 9.47729C4.04215 8.83216 3.60266 7.89293 3.5657 6.93446C4.51136 6.75655 5.52611 6.97533 6.3384 7.62046C7.15068 8.26638 7.59016 9.20481 7.62712 10.1641C6.68147 10.3412 5.66591 10.1224 4.85443 9.47649L4.85363 9.47729Z" fill="#20493C"/>
<path d="M2.79679 23.0946C1.78526 23.3246 0.774522 23.0826 0 22.5136C0.44993 21.6649 1.25418 21.0102 2.26652 20.7794C3.27886 20.5486 4.28879 20.7914 5.06412 21.3604C4.61339 22.2082 3.80914 22.8638 2.79679 23.0938V23.0946Z" fill="#20493C"/>
<path d="M12.1891 33.1881C11.7391 34.121 10.9188 34.7573 9.99004 35.0065C9.60599 34.1266 9.59314 33.0904 10.0439 32.1576C10.4946 31.2239 11.3141 30.5876 12.2437 30.3384C12.627 31.2191 12.6398 32.2545 12.1891 33.1873V33.1881Z" fill="#20493C"/>
<path d="M25.9569 32.1576C26.4077 33.0904 26.3956 34.1266 26.0116 35.0065C25.082 34.7573 24.2625 34.1218 23.8117 33.1881C23.361 32.2553 23.3731 31.2191 23.7571 30.3384C24.6867 30.5884 25.5054 31.2239 25.9561 32.1576H25.9569Z" fill="#20493C"/>
<path d="M33.7327 20.7778C34.7442 21.0078 35.5493 21.6633 36 22.5112C35.2255 23.081 34.2155 23.323 33.2032 23.093C32.1909 22.863 31.3858 22.2074 30.9359 21.3588C31.7112 20.7898 32.7203 20.5478 33.7327 20.7778Z" fill="#20493C"/>
<path d="M29.66 7.61885C30.4715 6.97373 31.487 6.75415 32.4319 6.93126C32.3957 7.89053 31.9563 8.82896 31.144 9.47488C30.3325 10.1208 29.3169 10.3396 28.3705 10.1617C28.4082 9.20241 28.8469 8.26397 29.6592 7.61805L29.66 7.61885Z" fill="#20493C"/>
<path d="M22.331 39.9992L13.6674 40C15.3852 39.9615 16.7703 38.5799 16.8081 36.8666H16.8089V18.1804C16.8089 17.145 17.2709 16.217 17.9988 15.5903C18.7283 16.217 19.1895 17.145 19.1895 18.1804V36.8666H19.1903C19.2281 38.5799 20.6132 39.9615 22.331 39.9992Z" fill="#20493C"/>
</svg>
